<?xml version="1.0" encoding="UTF-8" standalone="no"?>
<!-- Created with Inkscape (http://www.inkscape.org/) -->

<svg
   xmlns:dc="http://purl.org/dc/elements/1.1/"
   xmlns:cc="http://creativecommons.org/ns#"
   xmlns:rdf="http://www.w3.org/1999/02/22-rdf-syntax-ns#"
   xmlns:svg="http://www.w3.org/2000/svg"
   xmlns="http://www.w3.org/2000/svg"
   version="1.1"
   width="709.10577"
   height="929.78308"
   id="svg2">
  <defs
     id="defs4" />
  <metadata
     id="metadata7">
    <rdf:RDF>
      <cc:Work
         rdf:about="">
        <dc:format>image/svg+xml</dc:format>
        <dc:type
           rdf:resource="http://purl.org/dc/dcmitype/StillImage" />
        <dc:title></dc:title>
      </cc:Work>
    </rdf:RDF>
  </metadata>
  <g
     transform="translate(-15.827743,-53.194414)"
     id="layer1">
    <path
       d="m 362.42722,981.57572 c 5.22717,-11.58711 9.89577,-6.5677 23.36881,-19.108 -4.31378,4.16991 -17.59273,26.21943 -23.36881,19.108 z m 14.64421,-19.5583 c 2.88,-1.90567 2.33398,3.4349 0,0 z m 5,-1.941 c 11.08259,-17.49601 18.45914,-4.91777 0,0 z m -7,-6.0313 c 3.90389,-3.26072 4.00818,1.77515 0,0 z m 21.2,-7.1687 c 5.30962,-16.22897 25.88995,-16.58126 0,0 z m 4.4,-14.4 c -1.45884,-7.07965 3.60139,4.73139 0,0 z m 9.37224,-2.15 c -1.64852,-5.80838 28.4494,-44.20365 22.21598,-25.33033 -9.33075,5.06436 -13.95005,22.7327 -22.21598,25.33033 z m -4.97224,-3.809 c 3.10597,-3.62662 1.89775,5.0354 0,0 z m -45.36052,-1.1348 c -2.67159,-6.56398 6.25863,-0.0297 0,0 z m -4.08371,-9.2159 c -0.12585,-11.39399 6.60805,3.56973 0,0 z m -6.15775,-7.6862 c -13.51776,-16.34869 13.58777,4.1227 0,0 z m -10.03639,-10.9041 c -27.29398,-16.89886 12.35089,-3.06292 0,0 z m 96.21158,-4.7306 c 10.93686,-28.42309 9.08325,6.86415 0,0 z m -109.03153,-5.5587 c -18.66854,-9.88423 9.05,-4.81447 0,0 z m 123.45832,-5.2697 c 2.88,-1.90567 2.33398,3.4349 0,0 z m -146,-1.3819 c 1.89728,-5.03552 3.10638,3.62636 0,0 z m 141.17668,-0.2262 c 4.55797,-7.14134 3.83178,6.93862 0,0 z m -130.44089,-0.7841 c -11.37582,-15.64252 -22.3129,-59.33227 -5.97219,-18.7009 0.49225,3.16329 17.38753,22.37787 5.97219,18.7009 z m -7.23579,-2.5488 c 1.20936,-3.65615 2.46629,3.56228 0,0 z m 141.6149,0.092 c -0.16941,-6.93074 9.99459,2.92769 0,0 z m 5.53279,-7.8532 c 1.19861,-9.38711 13.79861,4.56917 0,0 z m 4.07281,-5.4828 c 1.12183,-11.92242 12.1078,0.99166 0,0 z m -143.98717,-1.8802 c 5.36885,-2.97942 -2.43668,3.07334 0,0 z m 150.51667,-2.538 c -4.767,-11.79898 7.05469,1.65595 0,0 z m -285.71983,-2.9253 c -56.08339,-0.35685 -64.87536,-57.65372 -62.28704,-100.44859 -12.93042,-10.93706 -49.755347,-40.07299 -14.81409,-46.64909 34.44428,17.96515 -26.441637,-7.40405 -7.144567,25.14139 27.042417,5.81486 36.045487,40.44917 27.896887,59.46448 -6.57219,13.39045 19.52443,47.01012 17.91966,44.1741 16.22513,9.76419 24.16016,9.31277 42.67056,13.82749 15.10455,2.67785 33.72912,-3.04213 48.76349,-9.29728 12.74645,5.27335 38.16272,-3.73083 56.6135,-9.9559 12.06333,-2.99144 57.24868,-9.55222 17.74418,-1.13961 -39.22468,14.04563 -80.76509,23.32975 -121.94141,25.65373 l -5.42117,-0.77072 0,0 z m 289.96983,0.5875 c 1.20936,-3.65615 2.46629,3.56228 0,0 z m -1.05803,-3.7093 c 12.5983,-18.03397 15.85973,-8.80413 0,0 z m -265.62947,-6.9738 c 5.59056,-0.86321 -1.71943,1.71456 0,0 z m -49.3125,-3.3169 c 2.56315,-3.70389 3.84426,3.58521 0,0 z m 151.57895,-0.5833 c 0.64331,-3.85394 1.0144,4.55157 0,0 z m 175.8059,-1.1667 c 5.47758,-21.13731 22.05554,-13.55463 0,0 z m -225.13485,-0.9122 c 5.50684,-1.62284 0.99946,1.74993 0,0 z m 46.0625,-1.0209 c 5.59056,-0.86321 -1.71943,1.71456 0,0 z m 35.6875,-9.3169 c 1.20936,-3.65615 2.46629,3.56228 0,0 z m -42.5,-1.393 c 4.21556,-3.30124 2.51451,1.76927 0,0 z m 35.5,-0.60696 c 2.46622,-3.56228 1.20945,3.65607 0,0 z m 154.5,-1 c 3.84426,-3.58521 2.56315,3.70389 0,0 z m -173,-1 c 2.46629,-3.56228 1.20936,3.65615 0,0 z m 181,0.19375 c -12.23845,-8.78154 24.89478,-12.39963 0,0 z m 8.60374,-9.78399 c -3.56031,-10.6865 15.95939,-15.76657 20.34992,-29.10328 5.30032,-2.56317 13.16926,-18.61252 20.04655,-24.0351 10.58153,-13.51961 24.3583,-18.996 30.16445,-30.4204 10.66513,1.81653 -24.2415,26.79692 -31.41466,40.36864 -9.68315,12.91036 -28.41893,29.23048 -32.84751,40.79176 -1.11398,0.7506 -5.16068,6.59382 -6.29875,2.39838 z m 40.89626,-47.40976 c 5.11579,-7.1523 -7.46262,7.27255 0,0 z m -29.5,25.11803 c 1.65009,-4.66873 3.4706,1.72386 0,0 z m 18,-44.89696 c 2.64334,-7.35065 10.32754,-3.32087 0,0 z m -23,-7.22107 c 2.55494,-3.58745 2.55494,3.58745 0,0 z m 24.25444,-2.25 c 1.10636,-11.87729 33.76724,-9.92998 3.69437,-1.15434 1.6003,0.88555 -4.90948,4.17963 -3.69437,1.15434 z m -425.28363,-3.28518 c -3.14303,-6.50078 6.80719,3.93341 0,0 z m 446.02919,-0.96482 c 7.56771,-5.45285 0.32663,5.57131 0,0 z m -456.499997,-4.5 c 7.001597,-3.70341 4.911487,3.7796 0,0 z m 12.499997,-1 c 2.55494,-3.58745 2.55494,3.58745 0,0 z m 442.79626,0.46293 c 9.11375,-13.432 23.65229,-9.8143 0,0 z m 23.90559,-0.0944 c 14.89066,-12.43627 15.49207,-21.77085 27.98747,-27.2114 4.9697,-7.94976 4.25366,-15.58293 9.90319,-16.65903 9.14014,-7.07715 5.22055,-28.03227 24.98139,-16.10811 -14.72843,13.0583 -32.17586,36.91701 -49.92152,50.29907 -1.36693,3.98607 -8.5584,9.91988 -12.95053,9.67947 z m 50.28285,-58.67754 c -5.01386,-1.01072 0.20114,7.21558 0,0 z m -506.4847,57.30901 c 3.84426,-3.58521 2.56315,3.70389 0,0 z m 10.32569,-1.31445 c -5.82887,-17.69562 32.21657,5.08694 0.44098,2.31449 -4.58939,1.15033 -1.65132,-0.95572 -0.44098,-2.31449 z m 6.17431,-2.68555 c -3.84426,-3.58521 -2.56315,3.70389 0,0 z m 379.66667,-2.66667 c -2.09465,-5.85171 5.85171,2.09465 0,0 z m -396.65173,-2.28717 c -2.4527,-9.67013 14.78553,6.51883 0,0 z m 429.41596,0.84204 c 1.86818,-7.55188 5.06049,3.3032 0,0 z m -40.92082,-1.90451 c 4.03371,-1.92807 2.26554,3.47393 0,0 z m 29.98992,0.0163 c 5.46559,-3.66091 3.72048,3.75517 0,0 z m 22,-1 c 5.46559,-3.66091 3.72048,3.75517 0,0 z m 5.3125,0.31689 c 5.59053,-0.8633 -1.71937,1.71436 0,0 z m -49.8125,-1.30974 c 9.54612,-13.22347 32.69746,-0.47556 0,0 z m 57.07389,-0.41812 c -1.31331,-6.96363 7.29004,4.6979 0,0 z m -19.07389,-1.58903 c 2.55494,-3.58745 2.55494,3.58745 0,0 z m 28.5,-5 c 1.20936,-3.65615 2.46629,3.56228 0,0 z m -55.5,-2 c 5.20326,-3.94241 3.13127,2.99739 0,0 z m 7.99542,-0.003 c 12.36319,-12.95085 30.65767,-0.13366 2.79062,-0.23456 l -2.79062,0.23456 0,0 z M 94.071433,705.02398 c -48.24408,-5.37435 2.17629,-72.09217 -35.64268,-89.08668 -51.8474801,-0.13951 -56.2972101,-55.47957 -13.74386,-77.58323 18.43874,-13.95455 33.21695,-66.15045 32.40442,-70.16777 7.0128,15.26124 -5.59483,36.05661 -12.24672,47.24614 -8.92801,27.52904 -59.2063401,46.91435 -44.76971,79.64313 11.13606,16.86567 53.29563,9.3809 53.05135,29.45347 9.90493,-9.38744 5.39315,26.20817 4.63092,15.79741 -3.31958,7.63108 4.08981,34.07932 -2.69672,50.73961 2.93535,6.78723 22.2855,9.98163 19.013,13.95792 z m 427.999997,-1.83624 c 17.88289,-9.43771 24.20764,-2.85225 0,0 z m 64.5,-2.11129 c 2.46629,-3.56228 1.20936,3.65615 0,0 z m 14.5,-3.88197 c 1.65008,-4.66873 3.4706,1.72386 0,0 z m -57.50603,-2.34994 c 14.1844,-5.71485 -6.93158,7.49871 0,0 z m -18.49397,-6.26809 c 2.18742,-8.72596 0.64989,8.71025 0,0 z m -7.1875,-0.18311 c 5.59053,-0.8633 -1.71937,1.71436 0,0 z m 20.6875,-1.31689 c 10.54137,-2.78851 -4.20998,3.47779 0,0 z m 4.7177,-4.1545 c 7.00968,-6.2953 1.95114,4.52718 0,0 z m -17.4677,-0.42586 c 7.52853,-6.3446 28.39086,-3.77302 0,0 z m 25.25,-4.40985 c 7.82141,-7.05268 4.02092,9.80761 0,0 z m -16,-2.95077 c 1.89758,-5.03541 3.10612,3.62658 0,0 z m 8.36703,-0.84388 c -2.07351,-4.90352 5.43654,1.58834 0,0 z m 3.63297,-3.77814 c 8.69368,-4.10155 7.7874,4.28718 0,0 z m 13,0.20535 c -5.08935,-6.36474 5.70494,2.3955 0,0 z m 82,0.29863 c 2.88022,-1.90558 2.3337,3.43479 0,0 z m -84.92105,-5.52431 c 0.64328,-3.85396 1.01442,4.55158 0,0 z m 56.05715,-1.08061 c 10.56156,-5.82821 -0.27174,5.51839 0,0 z m -53.85796,-2.45792 c -2.21076,-12.06123 9.14893,5.05303 0,0 z m -13.46564,-9.56125 c 5.59053,-0.8633 -1.71937,1.71436 0,0 z m 10.6875,-1.71915 c 13.25749,-5.73606 -3.66875,4.45185 0,0 z m 83.5,-1.59774 c -2.28643,-3.94731 7.30759,3.34806 0,0 z m 0,-2.87946 c -20.35558,-0.99166 12.25956,-16.18603 0,0 z M 479.7444,642.57483 c -10.40975,-7.38736 25.28275,1.1649 0,0 z m 14.95203,-0.29613 c 15.50114,-13.19313 37.18834,-5.85582 0,0 z M 85.086743,637.88547 c 2.75488,-7.3001 1.02634,3.80315 0,0 z m 461.225197,-0.059 c 16.64706,-10.80599 7.41813,1.80683 0,0 z m -66.99051,-0.4123 c -3.90181,-5.66572 7.70312,1.7973 0,0 z m -7,-1 c -3.99117,-8.21372 11.40227,1.59771 0,0 z m 161.95,-0.53772 c 0.13378,-16.2903 8.71513,-6.77086 3.94095,-24.49319 10.68204,-9.91956 11.58202,-15.54025 16.23145,-23.38576 6.02211,-21.59229 24.68649,-7.20472 4.6276,-3.16594 13.78786,6.51899 -18.91359,20.19014 -11,31.98978 -9.36965,-8.72965 3.86514,21.21356 -13.8,19.05511 z m 31.2182,-55.40699 c 6.49463,-7.36696 -10.8058,2.18581 0,0 z m -148.02519,52.0252 c 10.88188,-16.08245 17.17801,-6.85838 0.63271,1.58179 l -0.63271,-1.58179 0,0 z M 96.821433,631.28493 c 4.999197,-8.26965 35.490497,-7.63711 7.525587,0.60071 l -7.525587,-0.60071 0,0 z m 373.054857,0.26304 c 1.70852,-15.89925 5.98646,3.0068 0,0 z m -6.80486,-2.97779 c 4.36169,-7.1172 5.2459,7.63299 0,0 z m 51.59656,0.6625 c 0.45253,-5.11747 5.05142,0.69809 0,0 z m 46.40344,-1.8555 c 1.1904,-5.00179 3.15358,-1.82562 0,0 z M 87.821433,625.99312 c -3.10037,-7.30482 10.5239,6.59034 0,0 z m 379.249997,-2.97569 c 2.88022,-1.90558 2.3337,3.43479 0,0 z m 67,-1.94098 c 3.84426,-3.58521 2.56315,3.70389 0,0 z m 17.62495,-1.70838 c 6.63149,-8.96932 19.14287,-1.51623 0,0 z m -86.02194,-2.12495 c 2.30129,-3.00078 2.30134,3.00076 0,0 z m 37.99296,-3.77718 c 8.26797,-2.10148 -1.26818,-1.15492 0,0 z m 48.40403,-0.88949 c 2.47933,-5.26898 2.47933,5.26898 0,0 z m 4.5843,-1.1409 c 3.77878,-17.12598 45.35681,-30.44728 10.21503,-9.09424 5.61448,7.63467 17.5133,-3.4299 13.12607,6.98293 -10.3871,4.01952 -19.63433,0.94409 -23.3411,2.11131 z m -93.5843,-2.3591 c 2.55494,-3.58745 2.55494,3.58745 0,0 z m 2.53422,-2.94463 c 5.84884,-7.81977 7.18977,-0.48382 0,0 z m 187.48108,-3.30537 c 0.77217,-5.23767 2.92422,7.31225 0,0 z m -133.0153,0.25 c 3.90318,-3.65313 3.90318,3.65313 0,0 z m 5.38,-0.45211 c 0.11933,-8.50836 7.607,5.92301 0,0 z M 32.071433,602.13547 c 1.89758,-5.03541 3.10612,3.62658 0,0 z m 550.657917,-1.50809 c 5.62,-11.44218 6.75139,5.88987 0,0 z m -112.65792,-4.55093 c 3.84426,-3.58521 2.56315,3.70389 0,0 z m 61.42305,-3.33994 c 9.92948,-12.73557 22.60662,-0.51934 0,3e-5 l 0,-3e-5 z m -3.93416,-3.67803 c -0.66689,-5.42235 7.47634,1.23855 0,0 z m 48.51111,0.60088 c 20.56993,-36.88777 49.37024,-83.00131 27.67476,-125.75209 -16.11615,-27.52444 -53.89237,-37.45352 -82.17225,-22.73443 -13.84948,-6.74107 13.27294,-9.91594 22.21964,-10.42243 21.72347,-5.04305 30.7495,0.8758 47.27785,12.41966 10.15468,-5.76084 15.81125,26.02393 23.452,30.90638 -3.73207,9.07482 8.53584,37.81964 0.142,43.96425 -3.98778,17.52849 -17.08145,36.06585 -21.70072,53.19197 1.71388,2.83574 -13.20468,16.36175 -16.89328,18.42669 z m -50.5,-152.58291 c -3.84426,-3.58521 -2.56315,3.70389 0,0 z m 23.3125,147.31689 c 5.59053,-0.8633 -1.71937,1.71436 0,0 z m 42.6875,-1.31689 c 5.46559,-3.66091 3.72048,3.75517 0,0 z m 60,0 c 3.58822,-3.80715 1.24195,3.94233 0,0 z m -99.5,-5.80064 c 8.8853,-18.16529 9.68797,0.26895 0,0 z m -55.9682,-4.2161 c -27.36179,1.64843 1.59945,-26.95516 -4.0318,-4.45229 13.41141,-2.33079 80.70912,-29.82115 47.4992,-8.19345 -16.47539,-1.14883 -31.16974,9.59581 -43.4674,12.64574 z m 168.9682,-0.48326 c 1.35001,-6.08781 11.68815,-15.34549 6,-22.40013 10.05615,-3.38718 5.00041,28.03144 -6,22.40013 z m -68,-4 c 5.85963,-5.3956 2.23708,4.98004 0,0 z m 2.53262,-8.44721 c -1.51969,-11.31254 9.03231,5.16303 0,0 z m 66.96738,-3.05279 c 2.56318,-3.70388 3.84423,3.58521 0,0 z m 10.5,-3.58333 c 3.49386,-4.45065 3.54571,5.33901 0,0 z m -13,-1.91667 c 2.71083,-4.64483 2.71083,4.64483 0,0 z m -167.75,-5.77287 c 12.62718,-23.79496 -2.38259,16.38203 0,0 z m 169.75,0.67925 c 12.18194,-5.20108 25.70189,-19.25785 12.08877,-24.45249 3.60345,-9.7219 10.78934,-28.68947 16.91313,-33.97889 -16.96236,-0.43517 14.32504,-18.17333 -3.054,-16.50815 6.89036,-11.04355 -2.83507,-14.8635 9.0835,-17.88834 0.724,-6.60107 3.7544,-35.76526 10.6293,-47.74936 -1.45239,-7.93815 11.6082,-14.75796 -0.2704,-19.25862 11.16817,-3.35158 7.06026,-25.58642 1.71692,-13.3894 4.73693,-12.70658 4.66082,-27.44217 1.36278,-39.53047 -3.43547,-5.8679 -3.59222,-22.51075 -3.0546,-33.79083 -11.58784,-4.85375 -4.81271,-24.1371 -4.4134,-33.86125 -5.90809,-13.27445 -21.61917,-20.98575 -14,-34.99858 -10.83023,-4.69541 -1.99262,-28.93164 -9.0002,-21.30793 -11.42411,2.60722 8.87899,-17.98141 -12.89217,-17.74168 10.07492,-9.86898 7.44561,-10.94195 18.46887,6.28857 5.64802,16.40816 3.77639,31.93955 13.4383,49.78905 9.57145,17.63424 6.39537,42.7721 15.1281,62.97199 1.6394,25.47068 6.64392,31.56199 4.82307,60.03125 0.60069,18.64129 -4.16019,42.5274 -11.48457,53.6393 -0.40111,21.02928 -11.91565,35.69908 -13.1008,53.7111 2.56598,11.35718 -6.92541,21.61644 -7.82734,40.34991 -7.38445,11.55703 5.4351,20.34233 -12.30366,25.19379 16.79415,4.39657 -14.34061,2.03731 -12.2516,2.48103 z m 20,-23.90638 c -4.0974,-5.38165 -2.34353,5.09404 0,0 z m 0,-5.37756 c -3.29872,-8.53329 -11.77593,3.87155 0,0 z m 5.3616,-14.62244 c -3.50524,-5.29246 -2.37766,5.39971 0,0 z m 16.6384,-76.5 c -2.55495,-3.58745 -2.55495,3.58745 0,0 z m 2,-6 c -2.46626,-3.56227 -1.20941,3.65614 0,0 z m 1,-6 c -2.55495,-3.58745 -2.55495,3.58745 0,0 z m 6,-89.55902 c -3.10612,-3.62658 -1.89758,5.03541 0,0 z m -29.7102,-123.44098 c -3.66712,-6.56217 -2.41037,7.18012 0,0 z M 551.76528,545.43698 c -0.47694,-5.87716 5.07021,2.17584 0,0 z m -5.68403,-2.84869 c -0.71561,-7.09149 7.61888,4.3594 0,0 z m 5.24018,-4.79754 c -12.40457,-18.04192 8.71903,-10.73155 0,0 z m -403.92361,-1.12247 c 8.29551,-14.73702 9.35552,-5.86755 0,0 z m 352.984,-0.37883 c -5.8101,-29.56787 20.85285,-7.94883 8.97367,-5.46524 -9.14707,-7.8072 -3.55132,8.62024 -8.97367,5.46524 z m 174.24481,-1.27404 c 2.05291,-16.5217 3.91991,4.46734 0,0 z M 145.46304,527.6546 c -2.48942,-12.35219 -1.16873,-20.23694 0,0 z m 400.38842,-6.88886 c -9.47689,-14.13953 -10.62843,-28.50381 1.30389,-7.4229 1.18076,0.7866 9.09934,17.90609 -1.30389,7.4229 z m -27.11336,-4.35595 c -15.03605,-19.09946 9.32436,-8.95374 0,0 z m -374.66667,-3.66666 c 0.18268,-11.29775 -8.27016,-18.99328 11.45437,-17.94247 9.0995,11.64541 -16.17558,-0.74374 -11.07698,19.84913 l -0.37739,-1.90666 z m 7.5,-2.66667 c 2.46629,-3.56228 1.20936,3.65615 0,0 z m 524.5,-1.09362 c 5.27667,-3.08004 5.28772,1.71624 0,0 z m -58.7072,-3.87581 c 1.30829,-12.76025 4.79812,11.32887 0,0 z m -42.62613,0.30276 c -2.25827,-9.19039 11.28891,-3.05182 0,0 z m -179.66667,-4.33333 c 2.55494,-3.58745 2.55494,3.58745 0,0 z m 42.59801,0.15858 c -0.42115,-7.98212 8.48355,2.16702 0,0 z m 243.15199,0.15209 c -5.29811,-7.3303 9.77778,1.02441 0,0 z m -266.34976,-3.32126 c 9.6169,-12.79733 8.0735,0.58174 0,0 z m -17.15024,-0.48524 c -1.53095,-6.60573 15.19773,-3.1374 1.30572,1.45779 l -1.30572,-1.45779 z m 45.75,0.49583 c 3.84426,-3.58521 2.56315,3.70389 0,0 z m 79.5,0.21269 c -17.76655,-18.88836 11.63838,-7.25762 0,0 z m 51.75,-1.87497 c -3.43603,-19.65058 14.52519,-7.26858 0,0 z m -407.25,-1.25593 c 2.89855,-12.35453 10.71303,4.90565 0,0 z m 214,0.35247 c 4.64532,-13.11064 4.15831,4.16814 0,0 z m -222,-1.43426 c 2.55494,-3.58745 2.55494,3.58745 0,0 z m -10.78064,-1.64219 c -7.64655,-20.31076 12.80936,1.15532 0,0 z m 79.32176,0.70872 c -21.53782,-13.52281 11.21293,-3.12693 0,0 z m 128.96896,-0.0828 c 4.03371,-1.92807 2.26554,3.47393 0,0 z m 86.56188,-1.31173 c -8.91523,-5.69435 -0.0736,-24.80986 5.81434,-2.31611 l -2.32217,2.26607 -3.49219,0.05 2e-5,4e-5 z m 238.56644,-0.172 c 1.03645,-6.59695 6.36683,5.8603 0,0 z m -272.6384,-0.59563 c -4.35288,-13.1824 -26.90532,6.72237 -23.29969,-6.65436 12.76344,-1.61678 28.0479,-11.77885 23.29969,6.65436 l 0,0 z m -226.28975,-1.90437 c 2.69127,-6.76221 5.19185,7.12745 0,0 z m 278.28975,1 c 9.03108,-3.46196 0.98288,3.78936 0,0 z m -112.5,-1 c 2.46629,-3.56228 1.20936,3.65615 0,0 z m 118.5,0 c 2.46629,-3.56228 1.20936,3.65615 0,0 z m -291.26667,-1.12409 c 5.36885,-2.97937 -2.43669,3.07332 0,0 z m 198.72395,-0.26183 c 1.66687,-12.55265 11.59984,0.42522 0,0 z m 53.41516,-0.2778 c -2.79873,-4.53549 7.43438,5.4071 0,0 z m -223.76121,-1.81209 c -18.58596,-14.08057 21.31111,4.27383 0,0 z m 163.88877,1.53483 c 1.89758,-5.03541 3.10612,3.62658 0,0 z m 248.5,-0.059 c 1.20941,-3.65614 2.46625,3.56227 0,0 z m -386.59572,-1.61536 c -2.15443,-4.98635 7.12776,5.06406 0,0 z m 313.09572,0.6144 c -0.0543,-5.0609 7.41464,2.63748 0,0 z m -359,-0.75375 c 31.60792,-10.43576 -33.2164,-19.04478 7.8152,-12.88515 15.94497,2.86232 0.77516,15.33563 -7.8152,12.88515 z m 247.5,-0.24531 c 3.84426,-3.58521 2.56315,3.70389 0,0 z m 19.99447,-0.009 c 4.70385,-11.17073 25.93625,-12.14018 1.48929,0.97158 l -1.48929,-0.97154 0,-4e-5 z m 99.50553,0.009 c 2.46629,-3.56228 1.20936,3.65615 0,0 z m 131.2037,-0.95452 c 4.55816,-5.5307 -1.21992,6.64482 0,0 z M 466.7381,483.40979 c 1.83397,-9.32116 8.88088,-9.2733 0,0 z m -243.66667,-1.33333 c 2.55494,-3.58745 2.55494,3.58745 0,0 z m 124.66667,0.33333 c -2.54666,-7.45758 6.21261,1.6508 0,0 z m 16.63992,-0.97676 c -1.5722,-10.39093 -9.43147,-5.77926 1.76772,-16.60657 -7.21105,21.13447 24.12126,10.4336 -1.76772,16.60657 z m 49.92698,-0.10657 c -3.3767,-15.28101 9.84973,3.37249 0,0 l 0,0 z m -233.23357,-1.25 c 4.26412,-7.35858 2.09131,6.46088 0,0 z m 294.33333,0.54399 c 6.4255,-7.02276 5.75584,4.80388 0,0 z m 65.66667,-0.46066 c 3.38009,-7.04434 3.64853,6.13227 0,0 z m 35,0.91667 c 2.55494,-3.58745 2.55494,3.58745 0,0 z M 149.10661,478.1422 c -2.84099,-11.61423 -26.80896,-8.86371 -12.75143,-15.59764 -33.21501,-1.67966 -12.77269,-11.42578 6.71625,-4.85869 -10.13379,5.12009 28.94619,1.24487 6.03518,20.45633 z m -5.58223,-10.22626 c 10.33485,-13.67117 -11.13629,3.97001 0,0 z m 73.8368,10.16052 c -10.04985,-11.39852 9.03761,5.25319 0,0 z m 172.06752,0.51134 c 2.2179,-5.4144 0.27687,-1.69923 0,0 z m 92.0377,-0.3414 c 12.60575,-12.00238 7.37941,3.20521 0,0 z m 203.60503,-0.16994 c 2.55494,-3.58745 2.55494,3.58745 0,0 z m -231.37417,-1.5327 c -0.26586,-8.14949 8.76629,3.97078 0,0 z m -286.0558,-1.35399 c 1.83561,-6.88926 5.1569,3.3381 0,0 z m 39.42997,-0.56652 c -15.90376,-12.09582 -52.77653,-16.15936 -62.19086,-22.08871 9.10511,1.30645 80.75873,15.21105 62.19086,22.08871 z m 213.5,0.45321 c 3.58829,-3.8072 1.24187,3.94236 0,0 z m 14,0 c 1.20936,-3.65615 2.46629,3.56228 0,0 z m 10.68045,-1.23978 c 6.75618,-8.99294 1.52332,7.63448 0,0 z m 241.00705,1.17728 c 3.13548,-5.58305 3.3059,3.64622 0,0 z m -257.6875,-0.9375 c 2.56315,-3.70389 3.84426,3.58521 0,0 z m 47.5,-3.88131 c 11.91235,-22.93298 11.23748,-14.7528 7.92225,-0.34864 -10.36064,-12.91947 -2.18693,11.65368 -7.92225,0.34864 z m 67.46528,2.92979 c -11.92603,-8.7126 9.69539,3.40597 0,0 z m -190.71528,-1.45486 c -22.9762,-18.48465 21.76626,2.32822 0,0 z m 106.49953,0.15638 c 5.5739,-6.08569 2.35466,3.91365 0,0 z m -10.2479,-1.74899 c -3.71128,-3.95335 8.21356,0.54167 0,0 z m 6.17882,-2.25101 c 10.09848,-12.10101 -0.40957,8.66494 0,0 z m 68.81955,1.23199 c -22.25843,-7.55916 53.30923,-10.0832 15.77552,-4.61463 -4.99946,0.4436 -10.38854,7.00561 -15.77552,4.61463 z m -356.25,-1.28729 c -17.89937,-10.30987 24.80483,3.94434 0,0 z m 302.72134,-2.39363 c 4.98993,-25.15119 9.40374,2.50923 0,0 z m 218.52866,2.65634 c 9.25959,-11.79931 8.88989,3.24992 0,0 z m -134.53104,-3.00763 c -0.85,-5.37727 4.97014,2.30333 0,0 z m -45.20696,-2.21203 c -10.12435,-14.31267 22.27361,0.16786 1.25,0.61927 l -1.25,-0.61927 0,0 z M 74.071433,459.15825 c -3.64239,-9.50665 9.21502,2.53252 0,0 z m 4,-3.08179 c 2.55494,-3.58745 2.55494,3.58745 0,0 z m 183.673687,-1.40798 c -0.23984,-9.61075 5.81692,5.09337 0,0 z M 73.051373,452.55229 c -2.46632,-8.2317 7.13915,6.57495 0,0 z m 59.572847,-0.39042 c 6.56594,-5.2278 9.19644,4.52166 0,0 z m 31.44721,-0.0854 c 2.55494,-3.58745 2.55494,3.58745 0,0 z m 198,0 c 2.55494,-3.58745 2.55494,3.58745 0,0 z m 141.56224,-0.58062 c 8.58525,-6.96054 -17.23253,-11.88464 6.01959,-17.17089 -26.95805,8.25634 20.59402,7.20682 -6.01959,17.17089 z m -401.56224,-1.41938 c -1.65008,-3.7071 5.05526,3.76566 0,0 z m 265.25,-0.77759 c -10.25296,-18.58225 10.16618,6.65769 0,0 z m 122.44153,1.077 c -5.84317,-9.18541 22.89638,3.55385 0,0 z m 204.30847,-0.29941 c 5.46553,-3.66091 3.72053,3.75517 0,0 z m -214,-1.87757 c 2.27289,-7.48695 3.64381,3.40585 0,0 z M 93.531253,447.01145 c -1.19808,-12.10225 11.189957,3.27846 0,0 z m 19.352677,0.3819 c 5.59053,-0.8633 -1.71937,1.71436 0,0 z m 7.1875,-0.31689 c 2.46629,-3.56228 1.20936,3.65615 0,0 z m 240.6634,-3.68677 c -5.56464,-30.9815 12.51241,0.55187 0,0 z m -294.750057,1.40497 c -12.94616,-24.4534 7.38945,1.29969 0,0 z m 449.086657,-0.24958 c 4.13109,-7.20976 5.95913,6.05427 0,0 z m -407,-0.25464 c 3.40046,-5.40482 7.88614,3.00765 0,0 z m -26.433617,-2.11176 c -3.94937,-4.84598 9.15102,2.78286 0,0 z m 5.43362,-0.10222 c 2.55494,-3.58745 2.55494,3.58745 0,0 z m -10.75,-0.72024 c -5.36131,-6.17989 5.93337,0.38852 0,0 z m 27.064417,-1.02976 c -3.565757,-8.49064 6.8196,5.71173 0,0 z m 588.68558,0.75 c 2.46625,-3.56227 1.20941,3.65614 0,0 z m -581.34501,-2.82874 c -5.72846,-12.98117 9.77254,8.94106 0,0 z m 263.78017,-0.3385 c -4.94041,-20.34499 4.83693,3.40713 0,0 z M 95.071433,436.07646 c 2.55494,-3.58745 2.55494,3.58745 0,0 z m 113.624997,0.20225 c 0.0656,-7.21021 3.22835,2.12248 0,0 z m 156.375,-0.1832 c 9.57012,-7.83785 5.63315,5.05386 0,0 z M 71.571433,435.07646 c 5.46559,-3.66091 3.72048,3.75517 0,0 z m 44.026987,-0.95633 c -15.953787,-14.44754 7.58683,-3.9359 0,0 z m -31.348187,-3.71394 c -6.95193,-11.99053 8.46497,6.71584 0,0 z m 112.184837,0.0339 c 10.41354,-24.67619 3.31053,9.42777 0,0 z m -118.890627,0.5927 c -19.11328,-1.79058 15.18905,-10.11617 0,0 z m 498.026987,0.0437 c 3.72048,-3.75517 5.46559,3.66091 0,0 z M 66.738103,428.40982 c -3.75674,-10.11782 7.85214,2.33226 0,0 z m 34.833327,-0.33333 c 4.31151,-11.94797 9.94529,0.47528 0,0 z m 267.47994,-0.52417 c -3.05213,-6.86432 5.18756,5.41751 0,0 z m 158.83256,0.84106 c 5.59053,-0.8633 -1.71937,1.71436 0,0 z m 56.1875,-0.31689 c -9.95981,-6.6016 7.707,1.56529 0,0 z m 114.079,-0.58333 c 0.64335,-3.85396 1.01401,4.55165 0,0 z m -516.64762,-2.01131 c 6.33795,-12.63156 -0.5948,9.2804 0,0 z m 380.56862,1.59461 c 2.55494,-3.58745 2.55494,3.58745 0,0 z m -440.37376,-0.89802 c 4.9298,-17.09236 15.30474,2.39057 0,0 z M 87.375003,423.3135 c -26.73569,-4.49645 16.147377,-5.27105 0,0 z m 50.062927,0.95859 c -4.86324,-11.65859 -5.39543,2.83186 0,0 l 0,0 z m 8.97858,-1.73876 c -0.55782,-8.92613 6.97841,6.50014 0,0 z m 22.4575,-2.02222 c 2.21592,-10.49893 3.69571,8.71413 0,0 z m 69.19742,2.56535 c 2.55494,-3.58745 2.55494,3.58745 0,0 z m 128.07895,-0.25 c -8.38974,-7.08856 9.20236,-2.21761 0,0 l 0,0 z m -256.07895,-3.16667 c 4.86131,-12.00885 8.02843,10.3791 0,0 z m -46.104337,0.66667 c -4.04604,-41.33004 10.59803,-81.67017 17.58315,-121.9501 6.27652,10.01384 -4.45783,32.68426 -4.00241,43.05267 -1.97278,9.68763 -9.5643,36.042 -11.49532,56.09775 -4.13898,6.00853 3.99746,21.79693 -2.08542,22.79968 z m 9.34934,-0.5 c 8.14761,-6.26478 2.67174,5.11313 0,0 z m 27.754997,-0.19098 c 1.89758,-5.03541 3.10612,3.62658 0,0 z m 18,-1.9857 c 4.0782,-8.45878 4.76456,5.6507 0,0 z m -14.5,-0.57332 c 3.58829,-3.8072 1.24187,3.94236 0,0 z m 269.37244,-0.75 c -3.24849,-4.97037 5.68859,6.3135 0,0 z m -277.647667,-1.6952 c 3.34804,-6.52401 0.84576,7.52228 0,0 z m 17.737387,0.89067 c -0.40863,-10.14302 10.63091,-11.9759 1.37932,1.16681 l -1.37932,-1.16681 z m 15.03784,0.0545 c 2.47933,-5.26898 2.47933,5.26898 0,0 z m 232,0.2733 c 3.17373,-7.38421 2.32313,3.53056 0,0 z M 88.071433,414.13545 c 1.77691,-6.78707 3.09158,5.40584 0,0 z m 290.999997,0.44098 c 2.47933,-5.26898 2.47933,5.26898 0,0 z m -239,-0.44098 c 1.89758,-5.03541 3.10612,3.62658 0,0 z m 30,-2 c 1.77691,-6.78707 3.09158,5.40584 0,0 z m -45.36486,-0.55059 c -3.16457,-11.65469 15.11655,-11.0495 0,0 l 0,0 z m 27.93124,0.59379 c -4.20012,-5.34717 9.31349,2.89495 0,0 z m -15.56638,-2.04317 c 1.77691,-6.78707 3.09158,5.40584 0,0 z m 41,0.0557 c 1.80918,-5.55526 3.64741,5.53332 0,0 z m 189,1.00191 c 0.71595,-7.68033 0.72072,-10.35538 7.41044,-0.61663 -1.83552,-4.37776 -4.40547,4.50267 -7.41044,0.61663 z m 339,-3.58145 c 5.44167,-5.16829 -2.77966,-3.35026 0,0 l 0,0 z m -545.41724,-1.18011 c -1.80576,-9.15804 7.34292,2.94843 0,0 z m 537.56724,-0.30507 c 2.56718,-3.73483 2.3526,3.0785 0,0 z M 121.5,402.00304 c 1.39727,-6.42562 2.36684,5.33331 0,0 z m 11.29879,-2.23276 c -1.6933,-11.37358 8.22746,3.33101 0,0 z m 227.28795,0.6226 c 3.00469,-7.25515 8.97662,3.03626 0,0 z m -5.01531,-4.81642 c -5.38401,-20.93524 9.0658,8.59746 0,0 l 0,0 z m -228.65,-0.54578 c -0.26813,-7.61537 7.91497,-4.16065 0,0 z m 238.03404,-0.39581 c -1.07067,-11.35917 7.37638,6.23476 0,0 z m -15.38404,-1.61743 c 2.88022,-1.90558 2.3337,3.43479 0,0 z m 361.6667,0.39235 c -2.54676,-7.45756 6.2126,1.65077 0,0 z m -10,-3 c -3.08007,-4.52872 4.39977,0.85527 0,0 z m -351.9167,-1.91029 c -3.72581,-6.2612 3.81828,-3.22565 0,0 z m 11.91667,-1.08971 c -3.30174,-8.64786 6.0929,3.21485 0,0 z m 341.33333,-2.17834 c 6.00658,-9.01453 7.44063,1.76258 0,0 z m -368,-2.21401 c 2.88022,-1.90558 2.3337,3.43479 0,0 z m 20,-0.94098 c 2.56315,-3.70389 3.84426,3.58521 0,0 z m -10,-1.53138 c -23.99307,-16.60918 5.53479,-11.80866 0.89109,1.48296 l -0.89109,-1.48296 0,0 z m -2,-8.46862 c -2.55494,-3.58745 -2.55494,3.58745 0,0 z m 369,8.61803 c 1.19913,-6.48995 3.67794,3.64461 0,0 z m -382.4065,-3.76931 c -16.8783,-16.06787 9.05221,2.78105 0,0 z m 375.4065,-1.34872 c 5.18233,-5.45469 5.18233,5.45469 0,0 z m 5,-3.5 c 2.55494,-3.58745 2.55494,3.58745 0,0 z m -384.75,-5.66228 c -3.91847,-9.41737 24.53241,3.34345 0,0 z m -9.75,-4.33772 c 1.20936,-3.65615 2.46629,3.56228 0,0 z m 3.75,0.33744 c -4.40364,-15.38412 17.84808,0.39149 0,0 z m -10.03388,-5.34447 c 6.33563,-12.64726 14.69414,5.11458 0,0 z m -9.21612,-6.10715 c 1.99553,-3.36543 -26.01258,-10.96705 -21.37875,-16.38912 -0.22017,-0.49496 37.78517,17.41624 21.37875,16.38912 z m 15.54271,-0.81672 c 0.36508,-4.92516 3.18754,3.32686 0,0 z m -7.54271,-1.53392 c -13.34228,-13.94852 10.51221,4.64527 0,0 z m 405,-2.26188 c 2.6252,-10.03067 2.07866,6.95296 0,0 z m -401,-1.2733 c 5.24284,-3.68475 5.24284,3.68475 0,0 z m -18,-1.8 c -2.32152,-13.44666 10.54576,-1.07953 0,0 z m 14.66667,-3.86667 c -1.50955,-6.04533 8.82878,4.0536 0,0 z m -5.66667,-3.91666 c 3.49385,-4.45066 3.5458,5.33902 0,0 z m -12.96482,-1.35093 c -12.14708,-25.64766 11.30629,2.53637 0,0 z m 17.50753,1.00336 c 0.36508,-4.92516 3.18754,3.32686 0,0 z m 417.20729,-0.64606 c -3.72583,-6.26123 3.81834,-3.22561 0,0 z m -445.66347,-4.26135 c 1.18978,-3.1948 0.0364,-1.37595 0,0 z m 427.99247,-0.74502 c 0.64335,-3.85396 1.01401,4.55165 0,0 z m -399.579,-0.41667 c 2.46629,-3.56228 1.20936,3.65615 0,0 z m -35.5,-1.5 c 2.71084,-4.64483 2.71084,4.64483 0,0 z m 451,0.5 c 2.55494,-3.58745 2.55494,3.58745 0,0 z m -424.59459,-1.36278 c -4.95059,-11.34911 8.49904,-0.23755 0,0 z m -15.20541,-4.83722 c -13.09267,-24.46875 13.19709,3.38583 0,0 z m 11.86359,-4.18118 c -3.41637,-7.25852 8.88246,1.28728 0,0 z m 411.93641,-0.5598 c 2.11541,-4.96495 3.88711,3.61818 0,0 z m -2,-5.65311 c -8.22942,-15.56364 11.57061,7.45147 0,0 z m -412.07824,-0.90591 c -9.36873,-28.4386 3.34496,-31.05308 0,0 z m -16.92176,-3.5 c -9.23689,-7.86118 10.57056,-0.21431 0,0 z m 11.64605,-1.2878 c 0.66099,-20.11646 2.408,11.10908 0,0 z m 16.35395,-3.22042 c 1.90619,-10.42198 2.62102,10.35014 0,0 z m 400.079,-1.07511 c 0.64335,-3.85396 1.01401,4.55165 0,0 z m -430.68599,-0.99846 c 1.40257,-19.43941 5.23687,7.76024 0,0 z m -3.39301,-1.41821 c 2.55494,-3.58745 2.55494,3.58745 0,0 z m 32.67567,-2.4028 c 1.60519,-11.13139 5.4793,4.05806 0,0 z M 82.071433,295.68345 c 3.90414,-3.2606 4.00798,1.77513 0,0 z m 185.999997,-1.66601 c 2.88022,-1.90558 2.3337,3.43479 0,0 z M 68.071433,291.57646 c -14.66397,-22.78548 -16.02702,-57.21471 0.24088,-81.00894 4.31475,-15.18817 3.61097,-4.21044 13.20274,-28.32009 10.4832,-18.32472 29.061667,-43.05326 38.095037,-45.74995 21.48315,-19.36184 42.02013,-41.317406 70.62722,-48.991886 33.26782,-8.429974 70.35464,-13.19762 100.8613,-18.896436 27.2566,-8.552673 52.85901,-1.351356 81.08849,-7.479168 20.27773,-3.171893 57.65552,-9.624222 67.88437,-7.523192 27.6468,-1.425367 66.13651,7.261319 88.46337,22.447051 22.56465,-6.001393 46.8044,14.769133 63.03663,18.999995 17.83204,1.37966 -20.42392,27.427516 -2.8399,4.57242 C 570.19206,113.51357 577.74192,79.7105 566.1704,93.000885 557.04499,84.216311 545.34237,82.580404 530.82147,80.941758 c -27.97525,8.650881 4.4501,-9.830668 -18.07659,-11.248794 -14.23431,9.807235 -35.42463,-15.516989 -31.87341,-3.416466 0.71776,6.025479 -20.11064,-9.340639 -29.91708,-8.2 -8.87073,5.755005 -37.35129,2.750282 -53.85226,5.78704 -16.86733,-6.653681 -42.17818,15.452351 -39.25784,8.21684 -9.98979,-3.693089 -38.42101,-0.429796 -62.54929,1.8255 7.31518,6.535905 -48.53875,2.104468 -64.18457,10.35915 -20.13629,-1.019768 16.22458,7.600821 -9.54484,7.164598 -11.88703,-1.695701 -43.40998,4.851528 -39.18895,5.487718 -9.18258,8.253836 -26.74924,10.742306 -19.81264,15.473626 -22.72717,5.65887 -10.80811,16.45015 -41.44635,26.12224 7.92945,6.84638 -36.047607,34.04547 -20.41536,32.56325 -15.221037,10.62668 -25.722467,37.28514 -32.650037,54.45936 4.62652,-8.86275 -14.36364,39.0078 -1.82579,44.54064 -7.80021,1.8709 8.2535,25.64008 1.84497,21.5 z m 20.45729,-109.4309 c -0.36508,-4.92516 -3.18754,3.32686 0,0 z m 4.54271,-9.30965 c -4.47102,-2.03474 -4.29087,6.48205 0,0 z m 20.845497,-23.20748 c -1.4291,-5.83202 -4.46712,8.08377 0,0 z m 24.12409,-23.30197 c -1.22209,-6.69359 -1.48958,8.52208 0,0 z M 581.89475,96.409334 c -3.45762,-6.978933 -3.55061,6.136986 0,0 z M 525.07143,79.635488 c -2.3337,-3.434793 -2.88022,1.905577 0,0 z m -182.75,-9.99455 c 7.60404,-7.347792 -16.00895,3.025169 0,0 z m -43.25,-0.56447 c -2.55494,-3.587453 -2.55494,3.587453 0,0 z m 174.5,-9 c -3.84426,-3.585206 -2.56315,3.703889 0,0 z m -40.5,-2.44098 c -2.39298,-3.414421 -4.04845,1.915432 0,0 z M 76.071433,292.01744 c 2.88022,-1.90558 2.3337,3.43479 0,0 z m 195.999997,-0.94098 c 2.55494,-3.58745 2.55494,3.58745 0,0 z M 77.179973,284.49361 c 2.90857,-8.84988 -9.33174,-14.06846 -11.44245,-32.26736 9.80613,9.31437 9.72405,28.07205 14.2641,5.45816 2.25973,4.86648 16.91861,-28.65032 8.25488,3.21909 -7.37067,3.54001 -2.72492,43.92379 -11.07653,23.59011 z m -3.85854,4.84952 c -4.86705,-6.75608 5.77873,-2.16727 0,0 z m 198.749997,-2.29805 c 3.90414,-3.2606 4.00798,1.77513 0,0 z m 35.05017,-0.87487 c -5.28757,-15.13149 7.84798,6.74745 0,0 z m -23.05017,-4.03473 c 1.77691,-6.78707 3.09158,5.40584 0,0 z m 19,0.5 c 1.89758,-5.03541 3.10612,3.62658 0,0 z m 397.5427,-1.48992 c 0.36513,-4.92516 3.18751,3.32686 0,0 z m -411.5427,-2.03772 c 3.39381,-6.79436 1.97563,7.25449 0,0 z m 15,-4.13612 c 5.88009,-29.54352 7.8848,-11.71381 2.49026,3.35135 l -2.10869,-0.18334 -0.38157,-3.16801 0,0 z m 11.24968,-5.14526 c 11.65523,-43.33536 3.75924,8.78516 0,0 z m 385.75032,4.19098 c 2.88022,-1.90558 2.3337,3.43479 0,0 z m -5,-5 c 2.88022,-1.90558 2.3337,3.43479 0,0 z m -403.75047,-4.19098 c 5.21792,-5.41661 4.47672,4.72603 0,0 z m 402.35677,-0.33356 c 1.91295,-4.68874 3.23876,5.53128 0,0 z m -1.6063,-5.447 c -6.06351,-16.18985 8.66359,5.02837 0,0 z m -378,-6.96944 c 2.55494,-3.58745 2.55494,3.58745 0,0 z m -5,-1.01357 c 6.20104,-18.48096 16.1067,-26.75485 3.45184,-3.84143 3.4832,-2.92573 -3.90292,8.57439 -3.45184,3.84143 z m 385.5681,0.12378 c -9.92766,-3.53064 3.26703,-2.8741 0,0 z m -380.22949,-2.6702 c -0.0102,-7.82594 6.29909,5.47019 0,0 z m 13.16139,-2.44001 c 2.46629,-3.56228 1.20936,3.65615 0,0 z M 91.076843,243.58298 c 2.05568,-12.26287 12.938037,-20.34167 18.053607,-28.50652 -4.69904,-3.74395 16.36798,-15.56647 18.98465,-10.47301 -6.82856,5.24642 -9.68628,8.15009 -20.54367,21.47301 -2.78445,-3.34248 -14.215177,23.82126 -16.494587,17.50652 z m 228.026387,-0.35014 c 3.95636,-9.54718 6.28425,2.20057 0,0 z m 9.9682,-0.59736 c 1.89758,-5.03541 3.10612,3.62658 0,0 z m -0.5,-9.55902 c 1.20936,-3.65615 2.46629,3.56228 0,0 z m 353.1255,-2.53367 c 6.90283,-9.50761 7.88894,2.15809 0,0 z m -345.61388,-2.44462 c -1.2869,-6.11254 8.94765,-6.36397 0,0 l 0,0 z m -7.51162,-0.0217 c 4.98836,-3.6301 2.65267,3.8567 0,0 z m -4.03818,-3.63367 c 4.81821,-15.25456 5.38067,6.26698 0,0 z m -3.46182,-5.86633 c 4.68761,-5.68843 0.77267,4.89812 0,0 z m 356,0.11803 c 1.19913,-6.48995 3.67794,3.64461 0,0 z m -338.42997,-1.50472 c 1.43982,-7.24536 4.42577,2.98273 0,0 z m -7.57003,-2.11331 c 2.46629,-3.56228 1.20936,3.65615 0,0 z m 3.75807,-2.51478 c 3.97626,-10.57953 0.45148,8.45319 0,0 z m -10.0109,-2.63691 c -14.11403,-28.37436 9.99736,11.90605 0,0 z m 347.89233,-0.27539 c 2.62279,-10.51751 1.33541,6.03045 0,0 z m -394.6395,-2.57292 c 2.46629,-3.56228 1.20936,3.65615 0,0 z m 38.04584,-1.91435 c -0.8982,-7.02335 4.66424,5.73898 0,0 z m 22.68169,-0.15174 c 2.98598,-5.00151 0.70073,6.70367 0,0 z m -9.8372,-2.00169 c -6.92306,-9.27222 20.11613,1.47127 0,0 z m -67.4492,-2.40042 c -3.59195,-5.4291 7.0888,5.4042 0,0 z m -131.44113,-0.29543 c 6.33544,-6.07549 14.26282,-1.3809 1.77394,0.28696 l -1.77394,-0.28696 z m 544,-1.17735 c 1.89757,-5.03541 3.10612,3.62658 0,0 z m -553.32557,-1.46506 c 0.88834,-21.33393 5.8834,8.98123 0,0 z M 311.321,196.55125 c -11.34315,-17.59783 9.67464,3.69769 0,0 z m 13.75043,-0.5338 c 2.88022,-1.90558 2.3337,3.43479 0,0 z m 354,0 c 2.88022,-1.90558 2.3337,3.43479 0,0 z m -552.33545,-1.19098 c 19.4587,-27.54036 6.53081,8.47006 0,0 z m 203.52712,0.175 c 3.37708,-3.89373 3.37708,3.89373 0,0 z m -191.94167,-1.58728 c -3.18915,-6.38189 9.57795,1.9212 0,0 z m 186.35725,-2.16418 c -1.14245,-10.38664 -6.00344,-0.94581 0,0 l 0,0 z m -184.35725,-1.90649 c 4.68943,-9.4504 26.96137,-1.45738 0,0 z m 174.75,-0.26705 c -2.47946,-3.93854 7.32841,4.19286 0,0 z m -84.85,-2.95 c 2.56718,-3.73482 2.35259,3.0785 0,0 z m 79.62968,-2.00223 c 12.42245,-21.46428 2.13598,12.60542 0,0 z m 351.22032,0.39321 c 3.10612,-3.62658 1.89757,5.03541 0,0 z m 5.7255,-2.04879 c -2.19606,-5.89035 -8.76712,-5.05647 -20.64655,-6.55066 8.75596,-7.18787 40.51311,-0.37887 38.40115,0.1262 -7.61328,-2.10062 -11.28983,7.4851 -17.7546,6.42446 z m -521.4755,-1.81785 c -7.64527,-6.24012 10.2293,2.37617 0,0 z m 11.75,0.62566 c 0.0568,-17.18959 13.17552,-6.9099 0,0 z m 105,-1.4267 c 3.17373,-7.38421 2.32313,3.53056 0,0 z m 390,-0.18997 c 3.54733,-5.32586 3.37592,4.45801 0,0 z m -487.33577,-1.01596 c 1.00031,-8.402 4.57228,2.9237 0,0 z m 115.33577,0.016 c 3.54732,-5.32583 3.37589,4.45799 0,0 z m 7,0.41667 c 2.55494,-3.58745 2.55494,3.58745 0,0 z m -137,-1.51905 c -12.73075,-3.95313 14.24923,-0.39396 0,0 z m 164.68892,-1.50674 c -1.28694,-13.17856 5.55925,3.9416 0,0 z m -5.05055,-0.47421 c 2.37355,-5.24699 0.86541,5.2821 0,0 z m -22.63837,-2.06219 c 3.68902,-5.77994 3.66229,6.23766 0,0 z m -119,-0.93785 c 9.95044,-8.33619 6.52907,6.31242 0,0 z m 96,-0.37756 c 10.59396,-21.88029 8.13684,1.2286 0,0 z m 17,0.31854 c 3.06815,-3.54506 0.58932,4.92806 0,0 z m 16.5,0.55902 c -0.40552,-6.36296 5.57541,1.37212 0,0 z m -21.5,-1.5 c 2.47933,-5.26898 2.47933,5.26898 0,0 z m 392.6061,0.67167 c 12.62095,-8.77388 9.44007,0.61327 0,0 z m -24.4061,-2.37167 c -3.76005,-10.135 15.08278,0.70549 0,0 z m -353.2,-0.8 c 2.46629,-3.56228 1.20936,3.65615 0,0 z m -111.5,-1 c 1.20936,-3.65615 2.46629,3.56228 0,0 z m 79.09656,0.15623 c 0.45253,-5.11747 5.05142,0.69809 0,0 z m -67.09656,-1.04575 c -3.49091,-9.41783 15.21704,1.21996 0,0 l 0,0 z m 43.5,-0.61048 c 2.47933,-5.26898 2.47933,5.26898 0,0 z m 52,0.5 c 2.55494,-3.58745 2.55494,3.58745 0,0 z m 11.25,-0.25 c 6.98245,-4.66771 4.7452,5.16466 0,0 z m 373.75,-0.25 c 8.36954,-5.84176 -1.43405,5.7204 0,0 z m -391.58614,-0.86389 c -2.03151,-12.33068 5.77598,1.52145 0,0 z m -80.83041,-2.27924 c 26.9242,-13.22709 24.24692,-6.12636 1.00452,1.52539 l -1.00452,-1.52539 z m 90.41655,0.64313 c 2.55494,-3.58745 2.55494,3.58745 0,0 z m -49.99137,-3.61248 c 16.27219,-9.87122 -4.56471,10.17352 0,0 z m 397.62807,-0.34961 c 12.64029,-9.06553 -19.15703,0.0456 -0.61469,-10.85506 -26.64722,6.72341 33.24881,-27.06534 3.31143,-3.44968 -3.65928,16.72167 17.0906,-16.41304 3.33946,9.26683 34.21622,-15.9564 -8.05029,-2.81706 -6.0362,5.03791 l 0,0 z m -373.99833,0.46209 c 4.53953,-5.56762 -1.43833,5.39783 0,0 z m 37.36163,0.2 c 4.68255,-10.16091 5.99642,4.96981 0,0 z m 347,0.38333 c 29.35297,-18.98166 18.40736,-2.33736 0,0 z m -374.5,-2.08333 c 3.84426,-3.58521 2.56315,3.70389 0,0 z m -6.5,-3.53138 c 3.58806,-4.94716 4.18296,3.53985 0,0 z m 20.4427,0.11314 c -4.79263,-7.62549 8.92726,5.71747 0,0 z m -60.4427,-0.61314 c 7.81067,-8.57416 2.05065,5.58666 0,0 z m 398.1579,-0.96862 c 0.87513,-4.50741 0.87513,4.50741 0,0 z m -346.9079,-0.72024 c -17.08343,-11.26685 9.51249,1.17552 0,0 z m -25.22776,-1.52976 c 7.9988,-12.98406 15.26275,-5.22381 0,0 z m -15.52224,-0.75 c 1.24187,-3.94236 3.58829,3.8072 0,0 z m 50.3125,-0.68311 c 5.59054,-0.86328 -1.7194,1.71435 0,0 z m 363.6875,-2.31689 c 2.55494,-3.58745 2.55494,3.58745 0,0 z m -546,-4 c 1.20936,-3.65615 2.46629,3.56228 0,0 z m 518.7689,-1.02418 c -20.00585,-16.67054 28.67266,-24.5147 0.3479,-11.41956 17.49466,-2.75388 0.90436,1.1369 0.3363,9.39688 10.44008,-7.84969 12.8742,3.54756 -0.6842,2.02268 z m -495.2689,-2.9025 c -2.74048,-7.81823 12.71713,-0.57306 0,0 z m 488,-1.57332 c 2.47932,-5.26898 2.47932,5.26898 0,0 z m -16,-2.55902 c 2.85887,-5.36115 0.37557,6.53913 0,0 z m 33,1.23333 c 7.80798,-11.82259 11.42101,0.0775 0,0 z m -38.09513,-3.50577 c -14.13821,-19.08417 11.42006,6.9013 0,0 z m 14.85723,-4.58282 c -6.69883,-19.49103 13.95515,11.99067 0,0 z m 26.4998,-1.7762 c 11.33185,-3.95716 -6.39762,6.12879 0,0 z m -41.2619,-0.30952 c 6.62897,-6.34553 11.38773,4.86227 0,0 z m -12.90606,-4.38681 c -1.50399,-6.48908 5.20856,3.67292 0,0 z m 14.36494,0.32028 c 0.12426,-7.53754 4.65455,6.00453 0,0 z m 10.0839,-1.86425 c -3.11814,-15.44857 -28.05191,-13.02606 -3.04278,-17.50324 -0.51676,6.6092 23.64752,14.34751 3.04278,17.50324 z m -5.72323,-12.24089 c -3.13937,-8.75703 -1.78381,7.82902 0,0 z m -12.06955,9.50939 c 5.50683,-1.62305 0.99943,1.7502 0,0 z m 14.25,-0.2787 c 1.89757,-5.03541 3.10612,3.62658 0,0 z m -3,-1.05902 c -9.18322,-7.01778 6.87776,1.44787 0,0 z m -13,-1.55902 c 3.06815,-3.54506 0.58932,4.92806 0,0 z m -21,-5.44098 c 7.08619,-3.05707 -1.78724,3.54757 0,0 z m 6,0.038 c 0.12547,-10.412436 16.24699,3.21948 0,0 z m -12.55279,-2.95256 c -1.77381,-12.490316 18.64981,-6.87026 0,0 z m 9.05279,-5.08544 c 0.14023,-8.976693 7.87666,5.64522 0,0 z m -21.5,-1.37756 c 3.37928,-4.056666 4.72846,-2.761966 0,0 z m 11.57054,-0.50831 c -1.6533,-13.464623 5.18622,-0.194626 0,0 z m -9.42054,-4.064126 c 2.56718,-3.734822 2.35259,3.0785 0,0 z m -12.70385,-1.13713 c 0.89435,-7.543856 5.80726,4.11564 0,0 z m 10.10361,-3.643786 c 2.87776,-14.232523 7.99007,1.560188 0,0 z m -20.83951,-2.26908 c 8.60271,-11.188196 16.06359,2.615521 0,0 z m 14.89606,-0.58356 c 1.91292,-4.688725 3.23875,5.531293 0,0 z m -297.60631,-1.17589 c 2.25312,-6.233862 17.19919,3.090347 0,0 z m 11.2619,-2.93103 c 7.11428,-4.325692 -3.08084,6.035939 0,0 z m 252.7381,-2.30952 c -2.47946,-3.938537 7.32841,4.192855 0,0 z m -228,-2.89301 c 3.70966,-6.005502 7.85206,4.543406 0,0 z m 45.5,-0.10699 c 2.44859,-5.183567 8.81124,3.891187 0,0 z m 21.5,-0.5 c 13.10667,-5.888095 -1.97252,6.273409 0,0 z m 31,0.64405 c 9.37844,-6.219417 10.05712,1.666372 0,0 z m -63,-1.15018 c -28.67346,-2.302027 11.11006,-3.85129 0,0 l 0,0 z m 20.5,0.006 c 7.0016,-3.703412 4.91149,3.779598 0,0 z m 34.95888,-0.0665 c 0.12426,-7.537539 4.65455,6.004526 0,0 z m 137.29112,-1.6227 c -6.26858,-6.481641 13.30589,2.944865 0,0 z m -105.75,-1.31067 c 5.20326,-3.942406 3.13127,2.997393 0,0 z m 91,-0.44098 c 2.55276,-7.125456 11.74391,6.49773 0,0 z m -38.30929,-0.28099 c -9.7049,-7.525432 17.59927,3.694736 0,0 z m -45.65823,-2.21734 c 1.56001,-9.272593 8.20862,6.260852 0,0 z m 32.72918,1.23205 c 8.76875,-1.452534 1.81369,1.543389 0,0 z m -61.76166,-1.29274 c 2.46629,-3.562285 1.20936,3.656153 0,0 z m 11.68333,0.35 c -4.13713,-13.75106 7.2421,1.052532 0,0 z m 111.3183,-0.34899 c -3.71129,-3.953343 8.21356,0.541669 0,0 z m -82.36326,-1.50101 c 7.21311,-6.607856 13.64376,7.74303 0,0 z m 64.44058,-0.0833 c 0.64329,-3.853952 1.01442,4.55158 0,0 z m -16.496,-1.28245 c -0.84454,-5.861965 -3.04124,-2.552994 0,3e-5 l 0,-3e-5 z m -183.31392,-0.82721 c 6.59097,-1.479919 1.2797,1.658088 0,0 z m 159.23097,-0.30704 c 2.46629,-3.562285 1.20936,3.656153 0,0 z m -1.5,-5 c 2.46629,-3.562285 1.20936,3.656153 0,0 z"
       id="path3050"
       style="opacity:0.5;fill:#000000;fill-opacity:0.49803922;stroke:#000000;stroke-opacity:0.49803922" />
  </g>
</svg>
